<svg xmlns="http://www.w3.org/2000/svg" version="1.1" xmlns:xlink="http://www.w3.org/1999/xlink" xmlns:svgjs="http://svgjs.dev/svgjs" width="1000" height="623" viewBox="0 0 1000 623"><g transform="matrix(1,0,0,1,-0.6060606060606233,0.2522267206477409)"><svg viewBox="0 0 396 247" data-background-color="#ffffff" preserveAspectRatio="xMidYMid meet" height="623" width="1000" xmlns="http://www.w3.org/2000/svg" xmlns:xlink="http://www.w3.org/1999/xlink"><g id="tight-bounds" transform="matrix(1,0,0,1,0.2400000000000091,-0.09999999999999432)"><svg viewBox="0 0 395.52 247.2" height="247.2" width="395.52"><g><svg></svg></g><g><svg viewBox="0 0 395.52 247.2" height="247.2" width="395.52"><g transform="matrix(1,0,0,1,148.79823139534884,47.215199999999996)"><svg viewBox="0 0 97.92353720930231 152.7696" height="152.7696" width="97.92353720930231"><g><svg viewBox="0 0 97.92353720930231 152.7696" height="152.7696" width="97.92353720930231"><g><svg viewBox="0 0 97.92353720930234 152.76960000000003" height="152.7696" width="97.92353720930231"><g><svg viewBox="0 0 97.92353720930234 152.76960000000003" height="152.76960000000003" width="97.92353720930234"><g><svg viewBox="0 0 97.92353720930234 152.76960000000003" height="152.76960000000003" width="97.92353720930234"><g><svg viewBox="0 0 97.92353720930234 152.76960000000003" height="152.76960000000003" width="97.92353720930234"><g transform="matrix(1,0,0,1,0,0)"><svg width="97.92353720930234" viewBox="4.25 -34.400001525878906 22.049999237060547 34.400001525878906" height="152.76960000000003" data-palette-color="#ee3e38"><path d="M26.3 0L21.15 0 13.75-14.65 13.45-14.65 8.9-14.65 8.9 0 4.25 0 4.25-34.4 12.3-34.4Q24.6-34.4 24.6-24.7L24.6-24.7Q24.6-21.3 22.95-18.95 21.3-16.6 18.1-15.5L18.1-15.5 26.3 0ZM12.65-18.2Q16.25-18.2 18-19.78 19.75-21.35 19.75-24.7L19.75-24.7Q19.75-27.85 17.98-29.35 16.2-30.85 12.2-30.85L12.2-30.85 8.9-30.85 8.9-18.2 12.65-18.2Z" opacity="1" transform="matrix(1,0,0,1,0,0)" fill="#ee3e38" class="undefined-text-0" data-fill-palette-color="primary" id="text-0"></path></svg></g></svg></g></svg></g></svg></g></svg></g></svg></g></svg></g><path d="M64.42 41.215L64.42 0 311.62 0 311.62 247.2 64.42 247.2 64.42 205.985 78.197 205.985 78.197 233.423 297.844 233.423 297.844 13.777 78.197 13.777 78.197 41.215Z" fill="#ee3e38" stroke="transparent" data-fill-palette-color="primary"></path></svg></g><defs></defs></svg><rect width="395.52" height="247.2" fill="none" stroke="none" visibility="hidden"></rect></g></svg></g></svg>